<svg width="25" height="25" viewBox="0 0 25 25" fill="none" xmlns="http://www.w3.org/2000/svg">
<g id="Chat">
<path id="Vector" d="M22.1353 10.5191C21.6767 8.60327 20.6421 6.87401 19.1707 5.56416C17.6994 4.25432 15.862 3.42681 13.906 3.19308C11.95 2.95936 9.96934 3.33064 8.23079 4.25693C6.49225 5.18322 5.0793 6.62002 4.18226 8.37383C3.28521 10.1276 2.94713 12.1142 3.21357 14.066C3.48001 16.0179 4.33817 17.8411 5.67247 19.2904C7.00676 20.7396 8.75311 21.7451 10.6763 22.1715C12.5995 22.5979 14.6072 22.4248 16.429 21.6753C16.6934 21.5606 16.9892 21.5407 17.2665 21.6191L19.979 22.3941C20.1143 22.4381 20.2555 22.4613 20.3978 22.4628C20.6074 22.4618 20.8142 22.4148 21.0036 22.325C21.193 22.2353 21.3604 22.105 21.494 21.9434C21.6275 21.7819 21.7239 21.593 21.7764 21.39C21.8289 21.1871 21.8362 20.9751 21.7978 20.7691L21.229 17.8628C21.1904 17.5951 21.2363 17.322 21.3603 17.0816V17.0816C22.3897 15.0555 22.6644 12.7292 22.1353 10.5191V10.5191ZM20.3603 16.6066C20.1194 17.065 20.0381 17.5905 20.129 18.1003L20.679 21.0191C20.6877 21.0706 20.6831 21.1235 20.6656 21.1727C20.6481 21.2219 20.6183 21.2659 20.579 21.3003C20.5408 21.3373 20.4934 21.3632 20.4416 21.3753C20.3899 21.3874 20.3359 21.3852 20.2853 21.3691L17.5978 20.5191C17.3957 20.4544 17.1849 20.4207 16.9728 20.4191C16.6467 20.4231 16.3244 20.4888 16.0228 20.6128C14.1752 21.367 12.1215 21.4481 10.2202 20.8421C8.31893 20.236 6.69102 18.9812 5.62082 17.2969C4.55061 15.6126 4.10615 13.6059 4.36506 11.6272C4.62396 9.64856 5.56978 7.82374 7.03731 6.47152C8.50484 5.11929 10.4008 4.32562 12.394 4.22913C14.3872 4.13264 16.3509 4.73946 17.9422 5.94361C19.5335 7.14776 20.6512 8.87269 21.1 10.8171C21.5488 12.7615 21.3003 14.8018 20.3978 16.5816L20.3603 16.6066Z" fill="#4D4D4F"/>
</g>
</svg>
