<svg width="25" height="26" viewBox="0 0 25 26" fill="none" xmlns="http://www.w3.org/2000/svg">
<g id="Create">
<g id="Group 1">
<path id="Vector" d="M15.5683 2H7.69387C5.91855 2 4.21593 2.72539 2.96058 4.01661C1.70524 5.30782 1 7.05908 1 8.88513V16.972C1 18.7981 1.70524 20.5493 2.96058 21.8405C4.21593 23.1317 5.91855 23.8571 7.69387 23.8571H15.5683C17.3436 23.8571 19.0462 23.1317 20.3016 21.8405C21.5569 20.5493 22.2622 18.7981 22.2622 16.972V8.87261C22.2589 7.04873 21.5523 5.30068 20.2973 4.01218C19.0423 2.72367 17.3415 2 15.5683 2V2ZM21.3676 16.972C21.366 18.5535 20.7545 20.0698 19.6673 21.1881C18.58 22.3064 17.1059 22.9354 15.5683 22.937H7.69387C6.15629 22.9354 4.68214 22.3064 3.5949 21.1881C2.50767 20.0698 1.89616 18.5535 1.89455 16.972V8.87261C1.89776 7.2916 2.50979 5.77629 3.59668 4.65835C4.68357 3.54041 6.15678 2.91089 7.69387 2.90759H15.5683C17.1054 2.91089 18.5786 3.54041 19.6655 4.65835C20.7524 5.77629 21.3644 7.2916 21.3676 8.87261V16.972Z" fill="#4D4D4F"/>
<path id="Vector_2" d="M12.0753 7.91495H11.1869V12.4654H6.76285V13.3792H11.1869V17.9297H12.0753V13.3792H16.4994V12.4654H12.0753V7.91495Z" fill="#4D4D4F"/>
</g>
</g>
</svg>
