<svg width="25" height="25" viewBox="0 0 25 25" fill="none" xmlns="http://www.w3.org/2000/svg">
<g id="Home">
<path id="Vector" d="M21.325 12.8318L12.9 4.37554C12.781 4.25648 12.6398 4.16204 12.4843 4.0976C12.3288 4.03316 12.1621 4 11.9938 4C11.8255 4 11.6588 4.03316 11.5033 4.0976C11.3478 4.16204 11.2065 4.25648 11.0875 4.37554L2.66877 12.8318C2.4555 13.0463 2.28665 13.3009 2.17189 13.5808C2.05714 13.8607 1.99873 14.1605 2.00002 14.463V21.2568C1.9992 21.4379 2.03416 21.6174 2.10289 21.7849C2.17162 21.9524 2.27277 22.1048 2.40053 22.2331C2.5283 22.3614 2.68015 22.4633 2.84738 22.5328C3.01462 22.6023 3.19393 22.638 3.37502 22.638H8.80002C9.16635 22.638 9.51768 22.4925 9.77671 22.2335C10.0357 21.9744 10.1813 21.6231 10.1813 21.2568V17.138C10.1668 16.8906 10.2029 16.6429 10.2876 16.41C10.3723 16.1771 10.5037 15.964 10.6737 15.7837C10.8437 15.6034 11.0488 15.4597 11.2763 15.3615C11.5039 15.2634 11.7491 15.2127 11.9969 15.2127C12.2447 15.2127 12.4899 15.2634 12.7175 15.3615C12.945 15.4597 13.1501 15.6034 13.3201 15.7837C13.4901 15.964 13.6215 16.1771 13.7062 16.41C13.7909 16.6429 13.827 16.8906 13.8125 17.138V21.238C13.8125 21.6044 13.958 21.9557 14.2171 22.2147C14.4761 22.4738 14.8274 22.6193 15.1938 22.6193H20.6375C20.8186 22.6193 20.9979 22.5835 21.1652 22.514C21.3324 22.4445 21.4842 22.3427 21.612 22.2144C21.7398 22.086 21.8409 21.9337 21.9097 21.7661C21.9784 21.5986 22.0133 21.4191 22.0125 21.238V14.463C22.0114 14.1592 21.95 13.8586 21.832 13.5786C21.714 13.2986 21.5417 13.0448 21.325 12.8318ZM21.0875 21.2568C21.0859 21.3806 21.036 21.4989 20.9484 21.5865C20.8609 21.674 20.7426 21.7239 20.6188 21.7255H15.1938C15.0695 21.7255 14.9502 21.6762 14.8623 21.5882C14.7744 21.5003 14.725 21.3811 14.725 21.2568V17.138C14.7427 16.7688 14.6852 16.3998 14.5561 16.0534C14.427 15.707 14.2289 15.3905 13.9738 15.1229C13.7188 14.8553 13.412 14.6423 13.0722 14.4968C12.7324 14.3512 12.3666 14.2762 11.9969 14.2762C11.6272 14.2762 11.2614 14.3512 10.9216 14.4968C10.5818 14.6423 10.275 14.8553 10.02 15.1229C9.7649 15.3905 9.5668 15.707 9.43768 16.0534C9.30856 16.3998 9.25109 16.7688 9.26877 17.138V21.238C9.26877 21.3624 9.21938 21.4816 9.13148 21.5695C9.04357 21.6574 8.92434 21.7068 8.80002 21.7068H3.37502C3.2512 21.7052 3.13291 21.6553 3.04536 21.5677C2.9578 21.4801 2.90789 21.3619 2.90627 21.238V14.463C2.9052 14.2807 2.94058 14.0999 3.01035 13.9314C3.08011 13.7629 3.18285 13.61 3.31252 13.4818L11.7313 5.01929C11.7659 4.98515 11.8069 4.95819 11.8519 4.93996C11.897 4.92173 11.9452 4.91258 11.9938 4.91304C12.0938 4.91181 12.1904 4.94998 12.2625 5.01929L20.6813 13.4818C20.8109 13.61 20.9137 13.7629 20.9834 13.9314C21.0532 14.0999 21.0886 14.2807 21.0875 14.463V21.2568Z" fill="#4D4D4F"/>
</g>
</svg>
