<svg width="25" height="25" viewBox="0 0 25 25" fill="none" xmlns="http://www.w3.org/2000/svg">
<g id="Profile-fill">
<g id="Group 3">
<path id="Vector" d="M18.1877 8.41029C18.1901 9.69548 17.7683 10.9455 16.9877 11.9665C16.1414 13.0818 14.9262 13.8597 13.5591 14.1614C12.192 14.4631 10.7622 14.2688 9.52517 13.6133C8.28815 12.9578 7.32452 11.8838 6.8065 10.5832C6.28847 9.28257 6.24981 7.84014 6.69741 6.51365C7.14502 5.18716 8.04972 4.06306 9.24985 3.34222C10.45 2.62138 11.8673 2.35078 13.2486 2.57878C14.6299 2.80678 15.8851 3.51852 16.7899 4.58681C17.6947 5.6551 18.1902 7.01032 18.1877 8.41029V8.41029Z" fill="#4D4D4F"/>
<path id="Vector_2" d="M22.7502 20.7853V21.6103C22.7512 21.6672 22.7404 21.7236 22.7185 21.7761C22.6966 21.8286 22.6641 21.876 22.623 21.9153C22.5819 21.9546 22.5332 21.985 22.4798 22.0046C22.4264 22.0242 22.3695 22.0325 22.3127 22.029H2.31272C2.25573 22.0335 2.19846 22.0258 2.14463 22.0066C2.0908 21.9874 2.04163 21.957 2.00033 21.9175C1.95904 21.878 1.92656 21.8302 1.90501 21.7772C1.88345 21.7243 1.8733 21.6674 1.87523 21.6103V20.7853C1.87523 19.3084 2.46194 17.8919 3.50628 16.8476C4.55063 15.8032 5.96706 15.2165 7.44398 15.2165H17.2127C18.6842 15.2248 20.0926 15.8151 21.1302 16.8586C22.1678 17.902 22.7503 19.3138 22.7502 20.7853V20.7853Z" fill="#4D4D4F"/>
</g>
</g>
</svg>
