<svg width="25" height="25" viewBox="0 0 25 25" fill="none" xmlns="http://www.w3.org/2000/svg">
<g id="Search-Fill">
<path id="Vector" d="M17.9284 16.6784C19.2669 15.0198 19.9184 12.9111 19.7485 10.7865C19.5787 8.66201 18.6004 6.68354 17.0154 5.25872C15.4303 3.83391 13.3592 3.07127 11.2286 3.12795C9.09808 3.18462 7.0704 4.05627 5.56334 5.56334C4.05627 7.0704 3.18462 9.09808 3.12795 11.2286C3.07127 13.3592 3.83391 15.4303 5.25872 17.0154C6.68354 18.6004 8.66201 19.5787 10.7865 19.7485C12.9111 19.9184 15.0198 19.2669 16.6784 17.9284L19.9596 21.2159C20.0415 21.2983 20.1389 21.3637 20.2462 21.4083C20.3535 21.4529 20.4685 21.4759 20.5846 21.4759C20.7008 21.4759 20.8158 21.4529 20.9231 21.4083C21.0304 21.3637 21.1277 21.2983 21.2096 21.2159V21.2159C21.292 21.134 21.3574 21.0366 21.402 20.9293C21.4467 20.8221 21.4696 20.7071 21.4696 20.5909C21.4696 20.4747 21.4467 20.3597 21.402 20.2524C21.3574 20.1452 21.292 20.0478 21.2096 19.9659L17.9284 16.6784ZM11.4534 18.0471C10.1581 18.0521 8.8905 17.6725 7.8111 16.9565C6.7317 16.2405 5.88908 15.2202 5.38996 14.0249C4.89085 12.8297 4.75769 11.5132 5.00735 10.2422C5.25701 8.97116 5.87826 7.80284 6.79242 6.88518C7.70657 5.96751 8.87251 5.3418 10.1425 5.08727C11.4126 4.83275 12.7296 4.96087 13.9268 5.4554C15.1239 5.94994 16.1474 6.78865 16.8676 7.86529C17.5877 8.94194 17.9721 10.2081 17.9721 11.5034C17.9705 13.2341 17.284 14.8938 16.0626 16.1199C14.8411 17.346 13.1841 18.0389 11.4534 18.0471Z" fill="#4D4D4F"/>
</g>
</svg>
